<mxfile host="Electron" modified="2022-12-23T13:08:38.302Z" agent="5.0 (Windows NT 10.0; Win64; x64) AppleWebKit/537.36 (KHTML, like Gecko) draw.io/18.0.1 Chrome/100.0.4896.143 Electron/18.2.0 Safari/537.36" etag="YTPDwlka6AsJGHgRlZyx" compressed="false" version="18.0.1" type="device">
  <diagram id="3w6g5_Ta-V8lRmugiTsT" name="第 1 页">
    <mxGraphModel dx="802" dy="1034" grid="0" gridSize="10" guides="1" tooltips="1" connect="1" arrows="1" fold="1" page="0" pageScale="1" pageWidth="827" pageHeight="1169" math="0" shadow="0">
      <root>
        <mxCell id="0" />
        <mxCell id="1" parent="0" />
        <mxCell id="GYIKJYMq1MzzK1BG4W0E-1" value="&lt;span style=&quot;font-size: 19px;&quot;&gt;注册验证码&lt;/span&gt;" style="text;html=1;strokeColor=none;fillColor=none;align=center;verticalAlign=middle;whiteSpace=wrap;rounded=0;fontSize=18;fontStyle=1" parent="1" vertex="1">
          <mxGeometry x="1056" y="-37" width="297" height="44" as="geometry" />
        </mxCell>
        <mxCell id="GYIKJYMq1MzzK1BG4W0E-2" value="" style="rounded=0;whiteSpace=wrap;html=1;fontSize=18;fillColor=#f5f5f5;strokeColor=#666666;fontStyle=1;fontColor=#333333;" parent="1" vertex="1">
          <mxGeometry x="543.63" y="73" width="238" height="579" as="geometry" />
        </mxCell>
        <mxCell id="GYIKJYMq1MzzK1BG4W0E-3" value="浏览器" style="text;html=1;strokeColor=none;fillColor=none;align=center;verticalAlign=middle;whiteSpace=wrap;rounded=0;fontSize=17;fontStyle=1" parent="1" vertex="1">
          <mxGeometry x="557" y="79" width="60" height="30" as="geometry" />
        </mxCell>
        <mxCell id="GYIKJYMq1MzzK1BG4W0E-6" value="" style="rounded=0;whiteSpace=wrap;html=1;fontSize=17;fillColor=#fff2cc;strokeColor=#d6b656;fontStyle=1" parent="1" vertex="1">
          <mxGeometry x="865" y="13" width="1028" height="670" as="geometry" />
        </mxCell>
        <mxCell id="GYIKJYMq1MzzK1BG4W0E-7" value="服务端" style="text;html=1;strokeColor=none;fillColor=none;align=center;verticalAlign=middle;whiteSpace=wrap;rounded=0;fontSize=17;fontStyle=1" parent="1" vertex="1">
          <mxGeometry x="872" y="21" width="60" height="30" as="geometry" />
        </mxCell>
        <mxCell id="IKtbtzNoh4c-rDhUzVHM-12" style="edgeStyle=orthogonalEdgeStyle;rounded=0;orthogonalLoop=1;jettySize=auto;html=1;exitX=0.004;exitY=0.368;exitDx=0;exitDy=0;fontSize=17;strokeWidth=2;exitPerimeter=0;entryX=1.013;entryY=0.299;entryDx=0;entryDy=0;entryPerimeter=0;" edge="1" parent="1" source="GYIKJYMq1MzzK1BG4W0E-9" target="8VZ2lhoY9Nfm3T2TA_DG-1">
          <mxGeometry relative="1" as="geometry" />
        </mxCell>
        <mxCell id="IKtbtzNoh4c-rDhUzVHM-13" value="&lt;span style=&quot;font-weight: 700;&quot;&gt;返回验证码&lt;/span&gt;" style="edgeLabel;html=1;align=center;verticalAlign=middle;resizable=0;points=[];fontSize=17;" vertex="1" connectable="0" parent="IKtbtzNoh4c-rDhUzVHM-12">
          <mxGeometry x="-0.2637" y="1" relative="1" as="geometry">
            <mxPoint x="-9" y="-17" as="offset" />
          </mxGeometry>
        </mxCell>
        <mxCell id="GYIKJYMq1MzzK1BG4W0E-9" value="" style="text;html=1;strokeColor=#d79b00;fillColor=#ffe6cc;align=left;verticalAlign=top;whiteSpace=wrap;rounded=0;fontSize=17;fontStyle=1" parent="1" vertex="1">
          <mxGeometry x="915" y="59" width="226" height="523" as="geometry" />
        </mxCell>
        <mxCell id="GYIKJYMq1MzzK1BG4W0E-10" style="rounded=0;orthogonalLoop=1;jettySize=auto;html=1;entryX=-0.011;entryY=0.133;entryDx=0;entryDy=0;fontSize=17;strokeWidth=2;fontStyle=1;exitX=1.012;exitY=0.123;exitDx=0;exitDy=0;entryPerimeter=0;exitPerimeter=0;" parent="1" source="8VZ2lhoY9Nfm3T2TA_DG-1" target="Zatc0vboHGfkbghF3RjW-7" edge="1">
          <mxGeometry relative="1" as="geometry">
            <mxPoint x="785" y="145" as="sourcePoint" />
            <mxPoint x="932" y="133.00000000000023" as="targetPoint" />
          </mxGeometry>
        </mxCell>
        <mxCell id="GYIKJYMq1MzzK1BG4W0E-11" value="Http请求" style="edgeLabel;html=1;align=center;verticalAlign=middle;resizable=0;points=[];fontSize=17;fontStyle=1" parent="GYIKJYMq1MzzK1BG4W0E-10" vertex="1" connectable="0">
          <mxGeometry x="-0.2462" y="2" relative="1" as="geometry">
            <mxPoint x="15" as="offset" />
          </mxGeometry>
        </mxCell>
        <mxCell id="Zatc0vboHGfkbghF3RjW-18" style="edgeStyle=orthogonalEdgeStyle;rounded=0;orthogonalLoop=1;jettySize=auto;html=1;exitX=-0.001;exitY=0.893;exitDx=0;exitDy=0;fontSize=17;strokeColor=default;strokeWidth=2;exitPerimeter=0;" parent="1" source="GYIKJYMq1MzzK1BG4W0E-14" edge="1">
          <mxGeometry relative="1" as="geometry">
            <mxPoint x="1143" y="318" as="targetPoint" />
            <Array as="points">
              <mxPoint x="1167" y="349" />
              <mxPoint x="1167" y="318" />
            </Array>
          </mxGeometry>
        </mxCell>
        <mxCell id="GYIKJYMq1MzzK1BG4W0E-14" value="Service层" style="text;html=1;strokeColor=#82b366;fillColor=#d5e8d4;align=left;verticalAlign=top;whiteSpace=wrap;rounded=0;fontSize=17;fontStyle=1" parent="1" vertex="1">
          <mxGeometry x="1193.5" y="73" width="199" height="309" as="geometry" />
        </mxCell>
        <mxCell id="8VZ2lhoY9Nfm3T2TA_DG-27" style="edgeStyle=orthogonalEdgeStyle;rounded=0;orthogonalLoop=1;jettySize=auto;html=1;exitX=0;exitY=0.75;exitDx=0;exitDy=0;fontSize=17;strokeWidth=2;" parent="1" source="GYIKJYMq1MzzK1BG4W0E-16" edge="1">
          <mxGeometry relative="1" as="geometry">
            <mxPoint x="1397" y="341" as="targetPoint" />
          </mxGeometry>
        </mxCell>
        <mxCell id="GYIKJYMq1MzzK1BG4W0E-16" value="dao层" style="text;html=1;strokeColor=#6c8ebf;fillColor=#dae8fc;align=left;verticalAlign=top;whiteSpace=wrap;rounded=0;fontSize=17;fontStyle=1" parent="1" vertex="1">
          <mxGeometry x="1456" y="70" width="232" height="361" as="geometry" />
        </mxCell>
        <mxCell id="8VZ2lhoY9Nfm3T2TA_DG-22" style="edgeStyle=orthogonalEdgeStyle;rounded=0;orthogonalLoop=1;jettySize=auto;html=1;exitX=0.5;exitY=1;exitDx=0;exitDy=0;exitPerimeter=0;entryX=1.015;entryY=0.826;entryDx=0;entryDy=0;entryPerimeter=0;fontSize=17;strokeWidth=2;" parent="1" source="GYIKJYMq1MzzK1BG4W0E-20" target="GYIKJYMq1MzzK1BG4W0E-16" edge="1">
          <mxGeometry relative="1" as="geometry" />
        </mxCell>
        <mxCell id="GYIKJYMq1MzzK1BG4W0E-20" value="" style="shape=cylinder3;whiteSpace=wrap;html=1;boundedLbl=1;backgroundOutline=1;size=15.49022001378674;fontSize=17;fontStyle=1" parent="1" vertex="1">
          <mxGeometry x="1746" y="134.5" width="137" height="173" as="geometry" />
        </mxCell>
        <mxCell id="IKtbtzNoh4c-rDhUzVHM-6" style="edgeStyle=orthogonalEdgeStyle;rounded=0;orthogonalLoop=1;jettySize=auto;html=1;fontSize=30;strokeWidth=2;exitX=0.994;exitY=0.765;exitDx=0;exitDy=0;exitPerimeter=0;entryX=0.007;entryY=0.578;entryDx=0;entryDy=0;entryPerimeter=0;" edge="1" parent="1" source="8VZ2lhoY9Nfm3T2TA_DG-1" target="Zatc0vboHGfkbghF3RjW-7">
          <mxGeometry relative="1" as="geometry">
            <mxPoint x="765" y="416" as="sourcePoint" />
            <mxPoint x="926" y="416" as="targetPoint" />
            <Array as="points" />
          </mxGeometry>
        </mxCell>
        <mxCell id="IKtbtzNoh4c-rDhUzVHM-7" value="注册请求" style="edgeLabel;html=1;align=center;verticalAlign=middle;resizable=0;points=[];fontSize=17;fontStyle=1" vertex="1" connectable="0" parent="IKtbtzNoh4c-rDhUzVHM-6">
          <mxGeometry x="-0.2801" relative="1" as="geometry">
            <mxPoint x="23" as="offset" />
          </mxGeometry>
        </mxCell>
        <mxCell id="8VZ2lhoY9Nfm3T2TA_DG-1" value="login.jsp&lt;br&gt;1.向服务器申请生成注册码（图片）&lt;br&gt;2.将KaptchaServlet返回的验证码图片显示&lt;br&gt;&lt;br&gt;&lt;br&gt;&lt;br&gt;3.用户输入用户名，密码，电子邮件，验证码&lt;br&gt;4.先在浏览器端进行前端验证&lt;br&gt;5.注册器验证通过，就将注册信息提交给服务器（包括注册验证码）" style="rounded=0;whiteSpace=wrap;html=1;fontSize=17;fontStyle=1;align=left;verticalAlign=top;labelBorderColor=none;strokeColor=#999999;" parent="1" vertex="1">
          <mxGeometry x="562" y="125" width="201.25" height="322" as="geometry" />
        </mxCell>
        <mxCell id="8VZ2lhoY9Nfm3T2TA_DG-3" value="web层" style="text;html=1;strokeColor=none;fillColor=none;align=left;verticalAlign=top;whiteSpace=wrap;rounded=0;fontSize=17;fontStyle=1" parent="1" vertex="1">
          <mxGeometry x="920" y="64" width="60" height="30" as="geometry" />
        </mxCell>
        <mxCell id="8VZ2lhoY9Nfm3T2TA_DG-6" value="FurnService.java&lt;br&gt;[接口]" style="rounded=0;whiteSpace=wrap;html=1;labelBorderColor=none;fontSize=17;strokeColor=#999999;fontStyle=1;align=center;verticalAlign=top;" parent="1" vertex="1">
          <mxGeometry x="1213.5" y="128" width="159" height="62" as="geometry" />
        </mxCell>
        <mxCell id="8VZ2lhoY9Nfm3T2TA_DG-8" style="edgeStyle=orthogonalEdgeStyle;rounded=0;orthogonalLoop=1;jettySize=auto;html=1;exitX=0.5;exitY=0;exitDx=0;exitDy=0;fontSize=17;dashed=1;strokeWidth=2;" parent="1" source="8VZ2lhoY9Nfm3T2TA_DG-7" target="8VZ2lhoY9Nfm3T2TA_DG-6" edge="1">
          <mxGeometry relative="1" as="geometry" />
        </mxCell>
        <mxCell id="8VZ2lhoY9Nfm3T2TA_DG-26" style="edgeStyle=orthogonalEdgeStyle;rounded=0;orthogonalLoop=1;jettySize=auto;html=1;entryX=0;entryY=0.5;entryDx=0;entryDy=0;fontSize=17;strokeWidth=2;" parent="1" source="8VZ2lhoY9Nfm3T2TA_DG-7" target="8VZ2lhoY9Nfm3T2TA_DG-10" edge="1">
          <mxGeometry relative="1" as="geometry" />
        </mxCell>
        <mxCell id="8VZ2lhoY9Nfm3T2TA_DG-7" value="FurnServiceImpl&lt;br&gt;.java实现类：" style="rounded=0;whiteSpace=wrap;html=1;labelBorderColor=none;fontSize=17;strokeColor=#999999;align=center;fontStyle=1;verticalAlign=top;" parent="1" vertex="1">
          <mxGeometry x="1213.5" y="258" width="159" height="71" as="geometry" />
        </mxCell>
        <mxCell id="8VZ2lhoY9Nfm3T2TA_DG-9" value="FurnDAO接口" style="rounded=0;whiteSpace=wrap;html=1;labelBorderColor=none;fontSize=17;strokeColor=#999999;fontStyle=1;align=center;verticalAlign=middle;" parent="1" vertex="1">
          <mxGeometry x="1493.99" y="114" width="156" height="53.5" as="geometry" />
        </mxCell>
        <mxCell id="8VZ2lhoY9Nfm3T2TA_DG-13" style="edgeStyle=orthogonalEdgeStyle;rounded=0;orthogonalLoop=1;jettySize=auto;html=1;exitX=0.5;exitY=0;exitDx=0;exitDy=0;entryX=0.5;entryY=1;entryDx=0;entryDy=0;dashed=1;fontSize=17;strokeWidth=2;" parent="1" source="8VZ2lhoY9Nfm3T2TA_DG-10" target="8VZ2lhoY9Nfm3T2TA_DG-9" edge="1">
          <mxGeometry relative="1" as="geometry" />
        </mxCell>
        <mxCell id="8VZ2lhoY9Nfm3T2TA_DG-14" style="edgeStyle=orthogonalEdgeStyle;rounded=0;orthogonalLoop=1;jettySize=auto;html=1;exitX=0.5;exitY=1;exitDx=0;exitDy=0;entryX=0.5;entryY=0;entryDx=0;entryDy=0;fontSize=17;strokeWidth=2;" parent="1" source="8VZ2lhoY9Nfm3T2TA_DG-10" target="8VZ2lhoY9Nfm3T2TA_DG-11" edge="1">
          <mxGeometry relative="1" as="geometry" />
        </mxCell>
        <mxCell id="8VZ2lhoY9Nfm3T2TA_DG-21" style="edgeStyle=orthogonalEdgeStyle;rounded=0;orthogonalLoop=1;jettySize=auto;html=1;exitX=1;exitY=0.5;exitDx=0;exitDy=0;entryX=0.01;entryY=0.184;entryDx=0;entryDy=0;entryPerimeter=0;fontSize=17;strokeWidth=2;" parent="1" source="8VZ2lhoY9Nfm3T2TA_DG-10" target="8VZ2lhoY9Nfm3T2TA_DG-20" edge="1">
          <mxGeometry relative="1" as="geometry" />
        </mxCell>
        <mxCell id="8VZ2lhoY9Nfm3T2TA_DG-10" value="FurnDAOImpl实现类" style="rounded=0;whiteSpace=wrap;html=1;labelBorderColor=none;fontSize=17;strokeColor=#999999;fontStyle=1;align=center;verticalAlign=middle;" parent="1" vertex="1">
          <mxGeometry x="1466.6299999999999" y="218" width="210.75" height="52" as="geometry" />
        </mxCell>
        <mxCell id="8VZ2lhoY9Nfm3T2TA_DG-15" style="edgeStyle=orthogonalEdgeStyle;rounded=0;orthogonalLoop=1;jettySize=auto;html=1;exitX=0.5;exitY=1;exitDx=0;exitDy=0;fontSize=17;strokeWidth=2;dashed=1;" parent="1" source="8VZ2lhoY9Nfm3T2TA_DG-11" target="8VZ2lhoY9Nfm3T2TA_DG-12" edge="1">
          <mxGeometry relative="1" as="geometry">
            <Array as="points">
              <mxPoint x="1561" y="415" />
              <mxPoint x="1411" y="415" />
            </Array>
          </mxGeometry>
        </mxCell>
        <mxCell id="8VZ2lhoY9Nfm3T2TA_DG-16" value="使用" style="edgeLabel;html=1;align=center;verticalAlign=middle;resizable=0;points=[];fontSize=17;fontStyle=1" parent="8VZ2lhoY9Nfm3T2TA_DG-15" vertex="1" connectable="0">
          <mxGeometry x="-0.1633" y="1" relative="1" as="geometry">
            <mxPoint as="offset" />
          </mxGeometry>
        </mxCell>
        <mxCell id="8VZ2lhoY9Nfm3T2TA_DG-11" value="BasicDAO[基础DAO]" style="rounded=0;whiteSpace=wrap;html=1;labelBorderColor=none;fontSize=17;strokeColor=#999999;align=center;fontStyle=1;verticalAlign=middle;" parent="1" vertex="1">
          <mxGeometry x="1484.99" y="329" width="174" height="45.5" as="geometry" />
        </mxCell>
        <mxCell id="8VZ2lhoY9Nfm3T2TA_DG-18" value="test/junit包&lt;br&gt;作用：创建测试类来测试&lt;br&gt;1.dao层好不好用&lt;br&gt;2.service层好不好用" style="rounded=0;whiteSpace=wrap;html=1;labelBorderColor=none;fontSize=17;strokeColor=#9673a6;align=left;fontStyle=1;fillColor=#e1d5e7;" parent="1" vertex="1">
          <mxGeometry x="1334" y="554" width="216.5" height="108" as="geometry" />
        </mxCell>
        <mxCell id="8VZ2lhoY9Nfm3T2TA_DG-12" value="utils包-提供工具类，比如德鲁伊数据连接池" style="rounded=0;whiteSpace=wrap;html=1;labelBorderColor=none;fontSize=17;strokeColor=#b85450;align=left;fontStyle=1;verticalAlign=top;fillColor=#f8cecc;" parent="1" vertex="1">
          <mxGeometry x="1179" y="404" width="253" height="126" as="geometry" />
        </mxCell>
        <mxCell id="8VZ2lhoY9Nfm3T2TA_DG-17" value="JDBCUtilsDruid.java" style="rounded=0;whiteSpace=wrap;html=1;labelBorderColor=none;fontSize=17;strokeColor=#999999;fontStyle=1" parent="1" vertex="1">
          <mxGeometry x="1200.5" y="459.5" width="198" height="60" as="geometry" />
        </mxCell>
        <mxCell id="8VZ2lhoY9Nfm3T2TA_DG-19" value="mysql" style="text;html=1;strokeColor=none;fillColor=none;align=center;verticalAlign=middle;whiteSpace=wrap;rounded=0;labelBorderColor=none;fontSize=17;fontStyle=1" parent="1" vertex="1">
          <mxGeometry x="1776.5" y="134.5" width="60" height="30" as="geometry" />
        </mxCell>
        <mxCell id="8VZ2lhoY9Nfm3T2TA_DG-20" value="Member表&lt;br&gt;id&lt;br&gt;username&lt;br&gt;password&lt;br&gt;email" style="rounded=0;whiteSpace=wrap;html=1;labelBorderColor=none;fontSize=17;strokeColor=#9673a6;fillColor=#e1d5e7;fontStyle=1;align=left;" parent="1" vertex="1">
          <mxGeometry x="1755.31" y="180.62" width="118.37" height="99.75" as="geometry" />
        </mxCell>
        <mxCell id="Zatc0vboHGfkbghF3RjW-1" value="entity包-提供Javabean" style="rounded=0;whiteSpace=wrap;html=1;labelBorderColor=none;fontSize=17;strokeColor=#b85450;align=left;fontStyle=1;verticalAlign=top;fillColor=#f8cecc;" parent="1" vertex="1">
          <mxGeometry x="1601" y="449" width="211" height="117" as="geometry" />
        </mxCell>
        <mxCell id="Zatc0vboHGfkbghF3RjW-2" value="Member.java" style="rounded=0;whiteSpace=wrap;html=1;labelBorderColor=none;fontSize=17;strokeColor=#999999;fontStyle=1" parent="1" vertex="1">
          <mxGeometry x="1629" y="498" width="160" height="50" as="geometry" />
        </mxCell>
        <mxCell id="Zatc0vboHGfkbghF3RjW-17" style="edgeStyle=orthogonalEdgeStyle;rounded=0;orthogonalLoop=1;jettySize=auto;html=1;entryX=0;entryY=0.25;entryDx=0;entryDy=0;fontSize=17;strokeColor=default;strokeWidth=2;" parent="1" source="Zatc0vboHGfkbghF3RjW-7" target="8VZ2lhoY9Nfm3T2TA_DG-7" edge="1">
          <mxGeometry relative="1" as="geometry">
            <Array as="points">
              <mxPoint x="1173" y="184" />
              <mxPoint x="1173" y="275" />
            </Array>
          </mxGeometry>
        </mxCell>
        <mxCell id="IKtbtzNoh4c-rDhUzVHM-15" style="edgeStyle=orthogonalEdgeStyle;rounded=0;orthogonalLoop=1;jettySize=auto;html=1;exitX=0.5;exitY=1;exitDx=0;exitDy=0;fontSize=17;strokeWidth=2;" edge="1" parent="1" source="Zatc0vboHGfkbghF3RjW-7" target="IKtbtzNoh4c-rDhUzVHM-14">
          <mxGeometry relative="1" as="geometry">
            <Array as="points">
              <mxPoint x="1029" y="621" />
              <mxPoint x="847" y="621" />
              <mxPoint x="847" y="550" />
            </Array>
          </mxGeometry>
        </mxCell>
        <mxCell id="IKtbtzNoh4c-rDhUzVHM-16" value="注册成功" style="edgeLabel;html=1;align=center;verticalAlign=middle;resizable=0;points=[];fontSize=17;fontStyle=1" vertex="1" connectable="0" parent="IKtbtzNoh4c-rDhUzVHM-15">
          <mxGeometry x="-0.1287" y="2" relative="1" as="geometry">
            <mxPoint x="1" as="offset" />
          </mxGeometry>
        </mxCell>
        <mxCell id="IKtbtzNoh4c-rDhUzVHM-17" style="edgeStyle=orthogonalEdgeStyle;rounded=0;orthogonalLoop=1;jettySize=auto;html=1;exitX=0.007;exitY=0.854;exitDx=0;exitDy=0;entryX=1.004;entryY=0.947;entryDx=0;entryDy=0;entryPerimeter=0;fontSize=17;strokeWidth=2;exitPerimeter=0;fillColor=#f8cecc;strokeColor=#b85450;" edge="1" parent="1" source="Zatc0vboHGfkbghF3RjW-7" target="8VZ2lhoY9Nfm3T2TA_DG-1">
          <mxGeometry relative="1" as="geometry">
            <Array as="points">
              <mxPoint x="930" y="498" />
              <mxPoint x="847" y="497" />
              <mxPoint x="847" y="430" />
            </Array>
          </mxGeometry>
        </mxCell>
        <mxCell id="IKtbtzNoh4c-rDhUzVHM-18" value="注册失败&lt;br&gt;返回提示信息" style="edgeLabel;html=1;align=center;verticalAlign=middle;resizable=0;points=[];fontSize=17;fontStyle=1" vertex="1" connectable="0" parent="IKtbtzNoh4c-rDhUzVHM-17">
          <mxGeometry x="-0.1521" y="2" relative="1" as="geometry">
            <mxPoint x="-1" y="-22" as="offset" />
          </mxGeometry>
        </mxCell>
        <mxCell id="Zatc0vboHGfkbghF3RjW-7" value="KaptchaServlet&lt;br&gt;请求生成验证码，对应方法doGet&lt;br&gt;1.这个是谷歌提供的，会给用户返回验证码（图片），并且会将验证码文本保存到Session中&lt;br&gt;2.将图片以HTTP方式返回&lt;br&gt;&lt;br&gt;&lt;br&gt;&lt;br&gt;请求注册--register()&lt;br&gt;3.获取浏览提交信息（注册名，密码，验证码值）&lt;br&gt;4.从session中取出验证码值，立即将验证码从session中删除(!防止重复提交)&lt;br&gt;5.将提交验证码和服务器的验证码进行比较，如果相等则继续，否则注册失败，返回提示相关信息" style="rounded=0;whiteSpace=wrap;html=1;fontSize=17;align=left;verticalAlign=top;fontStyle=1;strokeColor=#999999;" parent="1" vertex="1">
          <mxGeometry x="930" y="105" width="197" height="460" as="geometry" />
        </mxCell>
        <mxCell id="IKtbtzNoh4c-rDhUzVHM-2" value="1" style="ellipse;whiteSpace=wrap;html=1;aspect=fixed;fontSize=30;fillColor=#dae8fc;strokeColor=#6c8ebf;" vertex="1" parent="1">
          <mxGeometry x="677" y="96" width="52" height="52" as="geometry" />
        </mxCell>
        <mxCell id="IKtbtzNoh4c-rDhUzVHM-3" value="1" style="ellipse;whiteSpace=wrap;html=1;aspect=fixed;fontSize=30;fillColor=#dae8fc;strokeColor=#6c8ebf;" vertex="1" parent="1">
          <mxGeometry x="1075" y="72.5" width="52" height="52" as="geometry" />
        </mxCell>
        <mxCell id="IKtbtzNoh4c-rDhUzVHM-4" value="2" style="ellipse;whiteSpace=wrap;html=1;aspect=fixed;fontSize=30;fillColor=#dae8fc;strokeColor=#6c8ebf;" vertex="1" parent="1">
          <mxGeometry x="565" y="240" width="52" height="52" as="geometry" />
        </mxCell>
        <mxCell id="IKtbtzNoh4c-rDhUzVHM-5" value="2" style="ellipse;whiteSpace=wrap;html=1;aspect=fixed;fontSize=30;fillColor=#dae8fc;strokeColor=#6c8ebf;" vertex="1" parent="1">
          <mxGeometry x="932" y="282" width="52" height="52" as="geometry" />
        </mxCell>
        <mxCell id="IKtbtzNoh4c-rDhUzVHM-14" value="register_ok.jsp&lt;br&gt;注册成功" style="rounded=0;whiteSpace=wrap;html=1;fontSize=17;strokeColor=#999999;fontStyle=1" vertex="1" parent="1">
          <mxGeometry x="561.13" y="488" width="203" height="124.5" as="geometry" />
        </mxCell>
      </root>
    </mxGraphModel>
  </diagram>
</mxfile>
